{
    "asset" : {
        "generator" : "Khronos glTF Blender I/O v1.6.16",
        "version" : "2.0"
    },
    "scene" : 0,
    "scenes" : [
        {
            "name" : "Scene",
            "nodes" : [
                2
            ]
        }
    ],
    "nodes" : [
        {
            "mesh" : 0,
            "name" : "mesh",
            "rotation" : [
                0,
                0,
                0.009978469461202621,
                0.9999502301216125
            ],
            "translation" : [
                0,
                -0.3341759741306305,
                0
            ]
        },
        {
            "name" : "Point",
            "scale" : [
                1.5670559406280518,
                1.5670559406280518,
                1.5670559406280518
            ],
            "translation" : [
                0.18806403875350952,
                0.24014213681221008,
                -0.03012319654226303
            ]
        },
        {
            "children" : [
                0,
                1
            ],
            "name" : "Frisa",
            "scale" : [
                0.6381393074989319,
                0.6381393074989319,
                0.6381393074989319
            ]
        }
    ],
    "materials" : [
        {
            "name" : "main",
            "pbrMetallicRoughness" : {
                "baseColorTexture" : {
                    "index" : 0
                },
                "metallicFactor" : 0
            }
        }
    ],
    "meshes" : [
        {
            "name" : "mesh",
            "primitives" : [
                {
                    "attributes" : {
                        "POSITION" : 0,
                        "NORMAL" : 1,
                        "TEXCOORD_0" : 2
                    },
                    "indices" : 3,
                    "material" : 0
                }
            ]
        }
    ],
    "textures" : [
        {
            "sampler" : 0,
            "source" : 0
        }
    ],
    "images" : [
        {
            "bufferView" : 4,
            "mimeType" : "image/jpeg",
            "name" : "texture.jpg"
        }
    ],
    "accessors" : [
        {
            "bufferView" : 0,
            "componentType" : 5126,
            "count" : 8079,
            "max" : [
                0.1296907216310501,
                0.41124778985977173,
                0.13233813643455505
            ],
            "min" : [
                -0.12940670549869537,
                0.32818442583084106,
                -0.13245868682861328
            ],
            "type" : "VEC3"
        },
        {
            "bufferView" : 1,
            "componentType" : 5126,
            "count" : 8079,
            "type" : "VEC3"
        },
        {
            "bufferView" : 2,
            "componentType" : 5126,
            "count" : 8079,
            "type" : "VEC2"
        },
        {
            "bufferView" : 3,
            "componentType" : 5123,
            "count" : 8079,
            "type" : "SCALAR"
        }
    ],
    "bufferViews" : [
        {
            "buffer" : 0,
            "byteLength" : 96948,
            "byteOffset" : 0
        },
        {
            "buffer" : 0,
            "byteLength" : 96948,
            "byteOffset" : 96948
        },
        {
            "buffer" : 0,
            "byteLength" : 64632,
            "byteOffset" : 193896
        },
        {
            "buffer" : 0,
            "byteLength" : 16158,
            "byteOffset" : 258528
        },
        {
            "buffer" : 0,
            "byteLength" : 2852990,
            "byteOffset" : 274688
        }
    ],
    "samplers" : [
        {
            "magFilter" : 9729,
            "minFilter" : 9987
        }
    ],
    "buffers" : [
        {
            "byteLength" : 3127680,
            "uri" : "data:application/octet-stream;base64,"
        }
    ]
}
