<svg xmlns="http://www.w3.org/2000/svg" viewBox="0 0 169.56 114.57"><defs><style>.cls-1{fill:none;stroke:#fff;stroke-miterlimit:10;}</style></defs><title>boton_envio</title><g id="Capa_2" data-name="Capa 2"><path class="cls-1" d="M46.56,37.18a1.92,1.92,0,0,1,2.08-1.33c6.34,0,12.68,0,19,0a1.68,1.68,0,0,1,1.79,1.25,2.21,2.21,0,0,1,.05.54q0,9.55,0,19.1a1.66,1.66,0,0,1-1.81,1.79c-6.35,0-12.71,0-19.06,0a1.91,1.91,0,0,1-2.07-1.33Z"/><path class="cls-1" d="M86,12.76a16,16,0,0,1,2.09.4,7.94,7.94,0,0,1,5.61,6.42.59.59,0,0,1,0,.13c-.68.1-1.37.14-2,.31a13.59,13.59,0,0,0-2.47.79A1.94,1.94,0,0,0,88,23.14c.11.91.27,1.82.36,2.74.14,1.34-.17,1.82-1.49,2a11.9,11.9,0,0,1-6-.78,4.88,4.88,0,0,1-2.78-3.41,8.07,8.07,0,0,1,2.3-8.85,7.63,7.63,0,0,1,4.64-2,3.19,3.19,0,0,0,.34-.07Z"/><path class="cls-1" d="M123,70.64a2.1,2.1,0,0,1-.42.38.51.51,0,0,1-.75-.2,10.79,10.79,0,0,0-16.6-1.44l-.26.24L98,49.2c-1,.38-2,.75-2.95,1.1A1.55,1.55,0,0,1,92.93,49a.65.65,0,0,1,0-.14c.53,0,1.05.13,1.58.14a23.55,23.55,0,0,0,2.8,0A3,3,0,0,0,100,46.46c0-.08,0-.16.11-.37.15.33.26.56.35.8Q101.52,50,102.57,53a.75.75,0,0,0,.45.48,14.41,14.41,0,0,1,7.53,7.28c.32.71.58,1.44.83,2.18a.44.44,0,0,0,.51.34,12.36,12.36,0,0,1,7.48,2.37A11.59,11.59,0,0,1,123,70.17Z"/><path class="cls-1" d="M83.14,51.71l2.33.37c2.53.39,5.06.76,7.58,1.2a3.7,3.7,0,0,1,2.9,2.45l3.81,9.63c.46,1.16.92,2.31,1.37,3.48a3.88,3.88,0,1,1-7.22,2.86q-2-4.92-3.89-9.85c-.13-.33-.28-.65-.38-1a.47.47,0,0,0-.45-.35c-3.94-.6-7.88-1.22-11.82-1.82a5.65,5.65,0,0,1-5-4.88,36,36,0,0,1-.49-5.27A32.88,32.88,0,0,1,74.1,35.74a7.55,7.55,0,0,1,4.78-4.85,5.74,5.74,0,0,1,2.66-.24,3.94,3.94,0,0,1,3.18,2.66,7.32,7.32,0,0,1,.44,4,.82.82,0,0,1-.07.15A5.61,5.61,0,0,1,84.7,37c-.54-.84-1.11-1.66-1.6-2.53a3.16,3.16,0,0,0-3.6-1.58,3.06,3.06,0,0,0-2.27,3.15,3.51,3.51,0,0,0,.37,1.33,22.21,22.21,0,0,0,5.81,7.15.57.57,0,0,1,.24.62,37.22,37.22,0,0,0-.51,6.13C83.14,51.42,83.14,51.55,83.14,51.71Z"/><path class="cls-1" d="M80,66a26.37,26.37,0,0,0,2.38,9.05c.13.27.31.22.51.22h19.39V79H77.55a10.67,10.67,0,0,0-3-9.73,10.32,10.32,0,0,0-8-3.15A10.81,10.81,0,0,0,56.3,79H50.95c.06-.67.08-1.33.18-2a47.05,47.05,0,0,1,3-10.32l.22-.57L54,66A1.19,1.19,0,0,1,53,64.93q0-1.77,0-3.55a1.22,1.22,0,0,1,1.13-1.18H79.32c1.07,0,1.51.45,1.51,1.52,0,.91,0,1.82,0,2.73A1.43,1.43,0,0,1,80,66Z"/><path class="cls-1" d="M112.93,86.2A9.26,9.26,0,1,1,122.21,77,9.26,9.26,0,0,1,112.93,86.2ZM116.61,77a3.66,3.66,0,1,0-3.68,3.66A3.66,3.66,0,0,0,116.61,77Z"/><path class="cls-1" d="M66.93,86.2a9.26,9.26,0,1,1,9.26-9.25A9.26,9.26,0,0,1,66.93,86.2Zm0-12.9A3.66,3.66,0,1,0,70.58,77,3.67,3.67,0,0,0,66.94,73.29Z"/><path class="cls-1" d="M96,48.43a19.51,19.51,0,0,1-15.33-7.49A19.38,19.38,0,0,1,78.1,37a2.47,2.47,0,0,1,2.4-3.6,2.43,2.43,0,0,1,2.08,1.43,16.75,16.75,0,0,0,4.71,5.63,13.84,13.84,0,0,0,8.89,2.93,6.26,6.26,0,0,1,1.36.07,2.46,2.46,0,0,1-.23,4.84C96.84,48.4,96.37,48.4,96,48.43Z"/><path class="cls-1" d="M110.19,48.32c-.15.84-.32,1.87-.53,2.9a3.1,3.1,0,0,1-.36.82,1.47,1.47,0,0,1-1.62.81,4.75,4.75,0,0,1-.37-9.39,1.66,1.66,0,0,1,2.2,1.18,5.57,5.57,0,0,1,.36,1.19C110,46.57,110.07,47.34,110.19,48.32Z"/><path class="cls-1" d="M81.32,28a20.44,20.44,0,0,0,4.35.6,5.29,5.29,0,0,0,2.65-.51,1,1,0,0,0,.44-.45,4.63,4.63,0,0,0,.14-2.79c-.09-.62-.16-1.24-.26-1.85a1.42,1.42,0,0,1,.78-1.56,7.64,7.64,0,0,1,2.69-.85c1-.17,1-.15,1.28.79a7,7,0,0,1-11.63,7.11C81.6,28.32,81.46,28.14,81.32,28Z"/></g></svg>