{
    "asset" : {
        "generator" : "Khronos glTF Blender I/O v1.6.16",
        "version" : "2.0"
    },
    "scene" : 0,
    "scenes" : [
        {
            "name" : "Scene",
            "nodes" : [
                3
            ]
        }
    ],
    "nodes" : [
        {
            "name" : "S02",
            "rotation" : [
                -0.3237791955471039,
                0.6286231279373169,
                0.3237791657447815,
                0.6286231875419617
            ],
            "scale" : [
                0.10000003129243851,
                0.10000002384185791,
                0.10000000149011612
            ]
        },
        {
            "mesh" : 0,
            "name" : "S02",
            "skin" : 0
        },
        {
            "children" : [
                1,
                0
            ],
            "name" : "S02:SSC",
            "translation" : [
                -6.268301963806152,
                -8.788630485534668,
                0
            ]
        },
        {
            "children" : [
                2
            ],
            "name" : "root02",
            "rotation" : [
                -0.21555723249912262,
                -0.6734501719474792,
                0.21555723249912262,
                0.6734501719474792
            ]
        }
    ],
    "animations" : [
        {
            "channels" : [
                {
                    "sampler" : 0,
                    "target" : {
                        "node" : 0,
                        "path" : "translation"
                    }
                },
                {
                    "sampler" : 1,
                    "target" : {
                        "node" : 0,
                        "path" : "rotation"
                    }
                },
                {
                    "sampler" : 2,
                    "target" : {
                        "node" : 0,
                        "path" : "scale"
                    }
                },
                {
                    "sampler" : 3,
                    "target" : {
                        "node" : 2,
                        "path" : "translation"
                    }
                }
            ],
            "name" : "clip",
            "samplers" : [
                {
                    "input" : 7,
                    "interpolation" : "LINEAR",
                    "output" : 8
                },
                {
                    "input" : 7,
                    "interpolation" : "LINEAR",
                    "output" : 9
                },
                {
                    "input" : 7,
                    "interpolation" : "LINEAR",
                    "output" : 10
                },
                {
                    "input" : 7,
                    "interpolation" : "LINEAR",
                    "output" : 11
                }
            ]
        }
    ],
    "materials" : [
        {
            "alphaMode" : "BLEND",
            "name" : "GLSLShader3",
            "pbrMetallicRoughness" : {
                "baseColorTexture" : {
                    "index" : 0
                },
                "metallicFactor" : 0.5,
                "roughnessFactor" : 0.5
            }
        }
    ],
    "meshes" : [
        {
            "name" : "SShape2",
            "primitives" : [
                {
                    "attributes" : {
                        "POSITION" : 0,
                        "NORMAL" : 1,
                        "TEXCOORD_0" : 2,
                        "JOINTS_0" : 3,
                        "WEIGHTS_0" : 4
                    },
                    "indices" : 5,
                    "material" : 0
                }
            ]
        }
    ],
    "textures" : [
        {
            "sampler" : 0,
            "source" : 0
        }
    ],
    "images" : [
        {
            "bufferView" : 6,
            "mimeType" : "image/png",
            "name" : "Image_0"
        }
    ],
    "skins" : [
        {
            "inverseBindMatrices" : 6,
            "joints" : [
                0
            ],
            "name" : "S02:SSC"
        }
    ],
    "accessors" : [
        {
            "bufferView" : 0,
            "componentType" : 5126,
            "count" : 479,
            "max" : [
                4.551661491394043,
                -8.519149780273438,
                8.740567864151672e-06
            ],
            "min" : [
                -4.551660060882568,
                -13.070816040039062,
                2.92849904326431e-06
            ],
            "type" : "VEC3"
        },
        {
            "bufferView" : 1,
            "componentType" : 5126,
            "count" : 479,
            "type" : "VEC3"
        },
        {
            "bufferView" : 2,
            "componentType" : 5126,
            "count" : 479,
            "type" : "VEC2"
        },
        {
            "bufferView" : 3,
            "componentType" : 5121,
            "count" : 479,
            "type" : "VEC4"
        },
        {
            "bufferView" : 4,
            "componentType" : 5126,
            "count" : 479,
            "type" : "VEC4"
        },
        {
            "bufferView" : 5,
            "componentType" : 5123,
            "count" : 600,
            "type" : "SCALAR"
        },
        {
            "bufferView" : 7,
            "componentType" : 5126,
            "count" : 1,
            "type" : "MAT4"
        },
        {
            "bufferView" : 8,
            "componentType" : 5126,
            "count" : 120,
            "max" : [
                4.958333333333333
            ],
            "min" : [
                0
            ],
            "type" : "SCALAR"
        },
        {
            "bufferView" : 9,
            "componentType" : 5126,
            "count" : 120,
            "type" : "VEC3"
        },
        {
            "bufferView" : 10,
            "componentType" : 5126,
            "count" : 120,
            "type" : "VEC4"
        },
        {
            "bufferView" : 11,
            "componentType" : 5126,
            "count" : 120,
            "type" : "VEC3"
        },
        {
            "bufferView" : 12,
            "componentType" : 5126,
            "count" : 120,
            "type" : "VEC3"
        }
    ],
    "bufferViews" : [
        {
            "buffer" : 0,
            "byteLength" : 5748,
            "byteOffset" : 0
        },
        {
            "buffer" : 0,
            "byteLength" : 5748,
            "byteOffset" : 5748
        },
        {
            "buffer" : 0,
            "byteLength" : 3832,
            "byteOffset" : 11496
        },
        {
            "buffer" : 0,
            "byteLength" : 1916,
            "byteOffset" : 15328
        },
        {
            "buffer" : 0,
            "byteLength" : 7664,
            "byteOffset" : 17244
        },
        {
            "buffer" : 0,
            "byteLength" : 1200,
            "byteOffset" : 24908
        },
        {
            "buffer" : 0,
            "byteLength" : 25767,
            "byteOffset" : 26108
        },
        {
            "buffer" : 0,
            "byteLength" : 64,
            "byteOffset" : 51876
        },
        {
            "buffer" : 0,
            "byteLength" : 480,
            "byteOffset" : 51940
        },
        {
            "buffer" : 0,
            "byteLength" : 1440,
            "byteOffset" : 52420
        },
        {
            "buffer" : 0,
            "byteLength" : 1920,
            "byteOffset" : 53860
        },
        {
            "buffer" : 0,
            "byteLength" : 1440,
            "byteOffset" : 55780
        },
        {
            "buffer" : 0,
            "byteLength" : 1440,
            "byteOffset" : 57220
        }
    ],
    "samplers" : [
        {
            "magFilter" : 9729,
            "minFilter" : 9987
        }
    ],
    "buffers" : [
        {
            "byteLength" : 58660,
            "uri" : "data:application/octet-stream;base64,"
        }
    ]
}
