{
    "asset" : {
        "generator" : "Khronos glTF Blender I/O v1.6.16",
        "version" : "2.0"
    },
    "scene" : 0,
    "scenes" : [
        {
            "name" : "Scene",
            "nodes" : [
                4
            ]
        }
    ],
    "nodes" : [
        {
            "name" : "S03",
            "rotation" : [
                0.02044329233467579,
                -0.913449227809906,
                0.009093939326703548,
                0.4063372015953064
            ],
            "scale" : [
                0.10000000894069672,
                0.10000001639127731,
                0.10000000149011612
            ],
            "translation" : [
                1.752462175375058e-08,
                -8.954997383625596e-07,
                -1.2836572693686321e-08
            ]
        },
        {
            "children" : [
                0
            ],
            "name" : "S03:SSC",
            "rotation" : [
                1.0058879285068656e-09,
                -2.3495363876691044e-08,
                -6.05359673500061e-09,
                1
            ],
            "scale" : [
                0.9999999403953552,
                1,
                1
            ],
            "translation" : [
                -0.4829481244087219,
                10.78417682647705,
                1.6728044727187807e-07
            ]
        },
        {
            "children" : [
                1
            ],
            "name" : "root03",
            "rotation" : [
                0.4063372313976288,
                0.00909400824457407,
                0.913449227809906,
                0.020443325862288475
            ],
            "scale" : [
                0.9999999403953552,
                1.0000001192092896,
                1
            ]
        },
        {
            "mesh" : 0,
            "name" : "S03",
            "skin" : 0
        },
        {
            "children" : [
                3,
                2
            ],
            "name" : "SShape3.002"
        }
    ],
    "animations" : [
        {
            "channels" : [
                {
                    "sampler" : 0,
                    "target" : {
                        "node" : 2,
                        "path" : "translation"
                    }
                },
                {
                    "sampler" : 1,
                    "target" : {
                        "node" : 2,
                        "path" : "rotation"
                    }
                },
                {
                    "sampler" : 2,
                    "target" : {
                        "node" : 2,
                        "path" : "scale"
                    }
                },
                {
                    "sampler" : 3,
                    "target" : {
                        "node" : 1,
                        "path" : "translation"
                    }
                },
                {
                    "sampler" : 4,
                    "target" : {
                        "node" : 1,
                        "path" : "rotation"
                    }
                },
                {
                    "sampler" : 5,
                    "target" : {
                        "node" : 1,
                        "path" : "scale"
                    }
                },
                {
                    "sampler" : 6,
                    "target" : {
                        "node" : 0,
                        "path" : "translation"
                    }
                },
                {
                    "sampler" : 7,
                    "target" : {
                        "node" : 0,
                        "path" : "rotation"
                    }
                },
                {
                    "sampler" : 8,
                    "target" : {
                        "node" : 0,
                        "path" : "scale"
                    }
                }
            ],
            "name" : "clip",
            "samplers" : [
                {
                    "input" : 7,
                    "interpolation" : "LINEAR",
                    "output" : 8
                },
                {
                    "input" : 7,
                    "interpolation" : "LINEAR",
                    "output" : 9
                },
                {
                    "input" : 7,
                    "interpolation" : "LINEAR",
                    "output" : 10
                },
                {
                    "input" : 7,
                    "interpolation" : "LINEAR",
                    "output" : 11
                },
                {
                    "input" : 7,
                    "interpolation" : "LINEAR",
                    "output" : 12
                },
                {
                    "input" : 7,
                    "interpolation" : "LINEAR",
                    "output" : 13
                },
                {
                    "input" : 7,
                    "interpolation" : "LINEAR",
                    "output" : 14
                },
                {
                    "input" : 7,
                    "interpolation" : "LINEAR",
                    "output" : 15
                },
                {
                    "input" : 7,
                    "interpolation" : "LINEAR",
                    "output" : 16
                }
            ]
        }
    ],
    "materials" : [
        {
            "alphaMode" : "BLEND",
            "name" : "GLSLShader4.002",
            "pbrMetallicRoughness" : {
                "baseColorTexture" : {
                    "index" : 0
                },
                "metallicFactor" : 0.5,
                "roughnessFactor" : 0.5
            }
        }
    ],
    "meshes" : [
        {
            "name" : "SShape3.002",
            "primitives" : [
                {
                    "attributes" : {
                        "POSITION" : 0,
                        "NORMAL" : 1,
                        "TEXCOORD_0" : 2,
                        "JOINTS_0" : 3,
                        "WEIGHTS_0" : 4
                    },
                    "indices" : 5,
                    "material" : 0
                }
            ]
        }
    ],
    "textures" : [
        {
            "sampler" : 0,
            "source" : 0
        }
    ],
    "images" : [
        {
            "bufferView" : 6,
            "mimeType" : "image/png",
            "name" : "Image_0"
        }
    ],
    "skins" : [
        {
            "inverseBindMatrices" : 6,
            "joints" : [
                2,
                1,
                0
            ],
            "name" : "SShape3.002"
        }
    ],
    "accessors" : [
        {
            "bufferView" : 0,
            "componentType" : 5126,
            "count" : 595,
            "max" : [
                4.551660537719727,
                -8.519149780273438,
                3.898537670465885e-08
            ],
            "min" : [
                -4.551661014556885,
                -13.070808410644531,
                -1.581946662554401e-07
            ],
            "type" : "VEC3"
        },
        {
            "bufferView" : 1,
            "componentType" : 5126,
            "count" : 595,
            "type" : "VEC3"
        },
        {
            "bufferView" : 2,
            "componentType" : 5126,
            "count" : 595,
            "type" : "VEC2"
        },
        {
            "bufferView" : 3,
            "componentType" : 5121,
            "count" : 595,
            "type" : "VEC4"
        },
        {
            "bufferView" : 4,
            "componentType" : 5126,
            "count" : 595,
            "type" : "VEC4"
        },
        {
            "bufferView" : 5,
            "componentType" : 5123,
            "count" : 600,
            "type" : "SCALAR"
        },
        {
            "bufferView" : 7,
            "componentType" : 5126,
            "count" : 3,
            "type" : "MAT4"
        },
        {
            "bufferView" : 8,
            "componentType" : 5126,
            "count" : 120,
            "max" : [
                4.958333333333333
            ],
            "min" : [
                0
            ],
            "type" : "SCALAR"
        },
        {
            "bufferView" : 9,
            "componentType" : 5126,
            "count" : 120,
            "type" : "VEC3"
        },
        {
            "bufferView" : 10,
            "componentType" : 5126,
            "count" : 120,
            "type" : "VEC4"
        },
        {
            "bufferView" : 11,
            "componentType" : 5126,
            "count" : 120,
            "type" : "VEC3"
        },
        {
            "bufferView" : 12,
            "componentType" : 5126,
            "count" : 120,
            "type" : "VEC3"
        },
        {
            "bufferView" : 13,
            "componentType" : 5126,
            "count" : 120,
            "type" : "VEC4"
        },
        {
            "bufferView" : 14,
            "componentType" : 5126,
            "count" : 120,
            "type" : "VEC3"
        },
        {
            "bufferView" : 15,
            "componentType" : 5126,
            "count" : 120,
            "type" : "VEC3"
        },
        {
            "bufferView" : 16,
            "componentType" : 5126,
            "count" : 120,
            "type" : "VEC4"
        },
        {
            "bufferView" : 17,
            "componentType" : 5126,
            "count" : 120,
            "type" : "VEC3"
        }
    ],
    "bufferViews" : [
        {
            "buffer" : 0,
            "byteLength" : 7140,
            "byteOffset" : 0
        },
        {
            "buffer" : 0,
            "byteLength" : 7140,
            "byteOffset" : 7140
        },
        {
            "buffer" : 0,
            "byteLength" : 4760,
            "byteOffset" : 14280
        },
        {
            "buffer" : 0,
            "byteLength" : 2380,
            "byteOffset" : 19040
        },
        {
            "buffer" : 0,
            "byteLength" : 9520,
            "byteOffset" : 21420
        },
        {
            "buffer" : 0,
            "byteLength" : 1200,
            "byteOffset" : 30940
        },
        {
            "buffer" : 0,
            "byteLength" : 37066,
            "byteOffset" : 32140
        },
        {
            "buffer" : 0,
            "byteLength" : 192,
            "byteOffset" : 69208
        },
        {
            "buffer" : 0,
            "byteLength" : 480,
            "byteOffset" : 69400
        },
        {
            "buffer" : 0,
            "byteLength" : 1440,
            "byteOffset" : 69880
        },
        {
            "buffer" : 0,
            "byteLength" : 1920,
            "byteOffset" : 71320
        },
        {
            "buffer" : 0,
            "byteLength" : 1440,
            "byteOffset" : 73240
        },
        {
            "buffer" : 0,
            "byteLength" : 1440,
            "byteOffset" : 74680
        },
        {
            "buffer" : 0,
            "byteLength" : 1920,
            "byteOffset" : 76120
        },
        {
            "buffer" : 0,
            "byteLength" : 1440,
            "byteOffset" : 78040
        },
        {
            "buffer" : 0,
            "byteLength" : 1440,
            "byteOffset" : 79480
        },
        {
            "buffer" : 0,
            "byteLength" : 1920,
            "byteOffset" : 80920
        },
        {
            "buffer" : 0,
            "byteLength" : 1440,
            "byteOffset" : 82840
        }
    ],
    "samplers" : [
        {
            "magFilter" : 9729,
            "minFilter" : 9987
        }
    ],
    "buffers" : [
        {
            "byteLength" : 84280,
            "uri" : "data:application/octet-stream;base64,"
        }
    ]
}
