{
    "asset" : {
        "generator" : "Khronos glTF Blender I/O v1.6.16",
        "version" : "2.0"
    },
    "scene" : 0,
    "scenes" : [
        {
            "name" : "Scene",
            "nodes" : [
                3
            ]
        }
    ],
    "nodes" : [
        {
            "name" : "S04",
            "rotation" : [
                -0.48657262325286865,
                0.5130761861801147,
                0.48657262325286865,
                0.51307612657547
            ],
            "scale" : [
                0.10000000149011612,
                0.09999999403953552,
                0.09999999403953552
            ]
        },
        {
            "mesh" : 0,
            "name" : "S04",
            "skin" : 0
        },
        {
            "children" : [
                1,
                0
            ],
            "name" : "S04:SSC",
            "translation" : [
                -0.5720102787017822,
                -10.779816627502441,
                0
            ]
        },
        {
            "children" : [
                2
            ],
            "name" : "root04",
            "rotation" : [
                -0.018740858882665634,
                -0.7068583965301514,
                0.018740858882665634,
                0.7068583965301514
            ]
        }
    ],
    "animations" : [
        {
            "channels" : [
                {
                    "sampler" : 0,
                    "target" : {
                        "node" : 0,
                        "path" : "translation"
                    }
                },
                {
                    "sampler" : 1,
                    "target" : {
                        "node" : 0,
                        "path" : "rotation"
                    }
                },
                {
                    "sampler" : 2,
                    "target" : {
                        "node" : 0,
                        "path" : "scale"
                    }
                },
                {
                    "sampler" : 3,
                    "target" : {
                        "node" : 2,
                        "path" : "translation"
                    }
                }
            ],
            "name" : "clip",
            "samplers" : [
                {
                    "input" : 7,
                    "interpolation" : "LINEAR",
                    "output" : 8
                },
                {
                    "input" : 7,
                    "interpolation" : "LINEAR",
                    "output" : 9
                },
                {
                    "input" : 7,
                    "interpolation" : "LINEAR",
                    "output" : 10
                },
                {
                    "input" : 7,
                    "interpolation" : "LINEAR",
                    "output" : 11
                }
            ]
        }
    ],
    "materials" : [
        {
            "alphaMode" : "BLEND",
            "name" : "GLSLShader5.002",
            "pbrMetallicRoughness" : {
                "baseColorTexture" : {
                    "index" : 0
                },
                "metallicFactor" : 0.5,
                "roughnessFactor" : 0.5
            }
        }
    ],
    "meshes" : [
        {
            "name" : "SShape4.002",
            "primitives" : [
                {
                    "attributes" : {
                        "POSITION" : 0,
                        "NORMAL" : 1,
                        "TEXCOORD_0" : 2,
                        "JOINTS_0" : 3,
                        "WEIGHTS_0" : 4
                    },
                    "indices" : 5,
                    "material" : 0
                }
            ]
        }
    ],
    "textures" : [
        {
            "sampler" : 0,
            "source" : 0
        }
    ],
    "images" : [
        {
            "bufferView" : 6,
            "mimeType" : "image/png",
            "name" : "Image_0"
        }
    ],
    "skins" : [
        {
            "inverseBindMatrices" : 6,
            "joints" : [
                0
            ],
            "name" : "S04:SSC"
        }
    ],
    "accessors" : [
        {
            "bufferView" : 0,
            "componentType" : 5126,
            "count" : 519,
            "max" : [
                4.551660537719727,
                -8.519155502319336,
                5.009694632462924e-07
            ],
            "min" : [
                -4.551660537719727,
                -13.070816040039062,
                -3.154875400923629e-07
            ],
            "type" : "VEC3"
        },
        {
            "bufferView" : 1,
            "componentType" : 5126,
            "count" : 519,
            "type" : "VEC3"
        },
        {
            "bufferView" : 2,
            "componentType" : 5126,
            "count" : 519,
            "type" : "VEC2"
        },
        {
            "bufferView" : 3,
            "componentType" : 5121,
            "count" : 519,
            "type" : "VEC4"
        },
        {
            "bufferView" : 4,
            "componentType" : 5126,
            "count" : 519,
            "type" : "VEC4"
        },
        {
            "bufferView" : 5,
            "componentType" : 5123,
            "count" : 600,
            "type" : "SCALAR"
        },
        {
            "bufferView" : 7,
            "componentType" : 5126,
            "count" : 1,
            "type" : "MAT4"
        },
        {
            "bufferView" : 8,
            "componentType" : 5126,
            "count" : 120,
            "max" : [
                4.958333333333333
            ],
            "min" : [
                0
            ],
            "type" : "SCALAR"
        },
        {
            "bufferView" : 9,
            "componentType" : 5126,
            "count" : 120,
            "type" : "VEC3"
        },
        {
            "bufferView" : 10,
            "componentType" : 5126,
            "count" : 120,
            "type" : "VEC4"
        },
        {
            "bufferView" : 11,
            "componentType" : 5126,
            "count" : 120,
            "type" : "VEC3"
        },
        {
            "bufferView" : 12,
            "componentType" : 5126,
            "count" : 120,
            "type" : "VEC3"
        }
    ],
    "bufferViews" : [
        {
            "buffer" : 0,
            "byteLength" : 6228,
            "byteOffset" : 0
        },
        {
            "buffer" : 0,
            "byteLength" : 6228,
            "byteOffset" : 6228
        },
        {
            "buffer" : 0,
            "byteLength" : 4152,
            "byteOffset" : 12456
        },
        {
            "buffer" : 0,
            "byteLength" : 2076,
            "byteOffset" : 16608
        },
        {
            "buffer" : 0,
            "byteLength" : 8304,
            "byteOffset" : 18684
        },
        {
            "buffer" : 0,
            "byteLength" : 1200,
            "byteOffset" : 26988
        },
        {
            "buffer" : 0,
            "byteLength" : 40566,
            "byteOffset" : 28188
        },
        {
            "buffer" : 0,
            "byteLength" : 64,
            "byteOffset" : 68756
        },
        {
            "buffer" : 0,
            "byteLength" : 480,
            "byteOffset" : 68820
        },
        {
            "buffer" : 0,
            "byteLength" : 1440,
            "byteOffset" : 69300
        },
        {
            "buffer" : 0,
            "byteLength" : 1920,
            "byteOffset" : 70740
        },
        {
            "buffer" : 0,
            "byteLength" : 1440,
            "byteOffset" : 72660
        },
        {
            "buffer" : 0,
            "byteLength" : 1440,
            "byteOffset" : 74100
        }
    ],
    "samplers" : [
        {
            "magFilter" : 9729,
            "minFilter" : 9987
        }
    ],
    "buffers" : [
        {
            "byteLength" : 75540,
            "uri" : "data:application/octet-stream;base64,"
        }
    ]
}
